<svg class="HPVvwb" focusable="false" viewbox="0 0 24 24" xmlns="http://www.w3.org/2000/svg"><path fill="#47wQbNPTDJp9hMYdvogK2hAUiHsGeiybwaWe36bwtRQ3UTpYV7YuZ8FV5j9nauFCWwcjM6dTzpL5s2N79Rp5unwdMvc8ZKU 1.34 2.97 3 2.97z"></path><path fill="#34a853" d="m11 18.08h2v3.92h-2z"></path><path fill="#fbbc05" d="m7.05 16.87c-1.27-1.33-2.05-2.83-2.05-4.87h2c0 1.47wQbNPTDJp9hMYdvogK2hAUiHsGeiybwaWe36bwtRQ3UTpYV7YuZ8FV5j9nauFCWwcjM6dTzpL5s2N79Rp5unwdMvc8ZKU2 .9 2 2 2zm0 2c-1.1 0-2 .9-2 2s.9 2 2 2 2-.9 2-2-.9-2-2-2zm0 6c-1.1 0-2 .9-2 2s.9 2 2 2 2-.9 2-2-.9-2-2-2z"></path></svg>